Coordinates
version=1
nRows=14
nColumns=40
inDegrees=yes

Units are S.I. units (second, meters, Newtons, ...)
Angles are in degrees.

endheader
time	pelvis_tilt	pelvis_list	pelvis_rotation	pelvis_tx	pelvis_ty	pelvis_tz	hip_flexion_r	hip_adduction_r	hip_rotation_r	knee_angle_r	knee_angle_r_beta	ankle_angle_r	subtalar_angle_r	mtp_angle_r	hip_flexion_l	hip_adduction_l	hip_rotation_l	knee_angle_l	knee_angle_l_beta	ankle_angle_l	subtalar_angle_l	mtp_angle_l	lumbar_extension	lumbar_bending	lumbar_rotation	arm_flex_r	arm_add_r	arm_rot_r	elbow_flex_r	pro_sup_r	wrist_flex_r	wrist_dev_r	arm_flex_l	arm_add_l	arm_rot_l	elbow_flex_l	pro_sup_l	wrist_flex_l	wrist_dev_l
     41.79750000	     -5.41352519	     -3.75747374	      2.71523200	      0.97251277	      0.92408593	      0.44352122	      0.60837296	     -1.06274101	    -14.82667835	     24.34569222	     24.34569222	     17.06668852	      3.50971065	     -6.07760278	     25.80438623	     -3.60666889	      0.08341551	     25.34116346	     25.34116346	      8.22981370	    -13.92909970	      4.99377857	     -6.51781162	      4.77672472	      4.75933905	     27.03273554	    -16.56622701	     -6.49129957	    100.04769009	     44.51052852	      0.00000000	      0.00000000	     -0.16379469	     -8.65616480	      2.36185656	     30.29690416	     44.75185176	      0.00000000	      0.00000000
     41.80914286	     -5.45709618	     -3.66649166	      2.45361342	      0.97283217	      0.92488329	      0.44107293	      1.67956205	     -1.76014221	    -14.36524200	     27.02852658	     27.02852658	     16.01500791	      2.57673358	     -7.70710187	     25.16016285	     -3.44448019	     -0.15638564	     25.14942001	     25.14942001	      8.73221501	    -13.90323811	      5.00991729	     -6.44157316	      4.78280473	      4.86791547	     25.66935354	    -16.41141245	     -6.45491873	     97.37725609	     44.59605140	      0.00000000	      0.00000000	      0.44496990	     -8.61241171	      2.40715679	     31.50038076	     44.76108668	      0.00000000	      0.00000000
     41.82078571	     -5.39173704	     -3.67077983	      2.20195420	      0.97314603	      0.92564471	      0.43884362	      2.53170318	     -2.20968281	    -13.72373614	     29.18688233	     29.18688233	     12.65476202	      0.14780613	    -15.15793932	     24.49284705	     -3.42265750	     -0.47259445	     25.12863852	     25.12863852	      9.40057251	    -13.72054573	      5.34729642	     -6.41469108	      4.89825349	      3.71248200	     25.60976821	    -15.31963087	     -5.16876746	     92.52679696	     44.75906445	      0.00000000	      0.00000000	     -0.44617369	     -9.19577654	      2.94073802	     35.19755514	     44.75506849	      0.00000000	      0.00000000
     41.83242857	     -5.39559469	     -3.56371084	      1.84927042	      0.97327982	      0.92617885	      0.43672094	      4.02987213	     -2.93803697	    -13.04409246	     32.60112983	     32.60112983	     11.45752321	     -1.19117249	    -15.88199722	     23.81413676	     -3.32213329	     -0.94546864	     24.95450225	     24.95450225	      9.82723902	    -13.50858779	      5.14275728	     -6.44963229	      4.90158162	      4.08678716	     23.92782140	    -15.40504297	     -5.13330170	     90.47374330	     44.82243156	      0.00000000	      0.00000000	      0.53184893	     -9.14587674	      2.91103870	     36.05539089	     44.78530317	      0.00000000	      0.00000000
     41.84407143	     -5.33713717	     -3.58972329	      1.50194626	      0.97329965	      0.92657287	      0.43492105	      5.57692861	     -3.31833289	    -11.96817717	     35.99209119	     35.99209119	      9.45144367	     -3.72434594	    -17.63708840	     23.19306508	     -3.39862542	     -1.42003378	     24.98479813	     24.98479813	     10.30291927	    -13.21677881	      4.77594727	     -6.47384478	      4.99128799	      4.00281150	     23.03149066	    -14.76422139	     -5.28179013	     86.43766847	     44.96734848	      0.00000000	      0.00000000	      0.95697645	     -9.37799173	      3.13195829	     37.99662999	     44.80757670	      0.00000000	      0.00000000
     41.85571429	     -5.31701356	     -3.39138305	      1.12609657	      0.97317583	      0.92668396	      0.43302154	      7.42352426	     -4.13350060	    -11.27364261	     39.87003761	     39.87003761	      7.86147595	     -5.11102544	    -17.99818344	     22.55472733	     -3.20800761	     -1.93530805	     24.91010008	     24.91010008	     10.76088893	    -13.07994937	      4.54010119	     -6.56910942	      4.87745444	      4.20674805	     21.41748426	    -14.71563631	     -4.99199744	     84.54423030	     45.01490965	      0.00000000	      0.00000000	      1.93027328	     -9.44121900	      3.08921654	     38.99784650	     44.83696534	      0.00000000	      0.00000000
     41.86735714	     -5.30146742	     -3.27016365	      0.76696252	      0.97285752	      0.92664712	      0.43136284	      9.41996350	     -4.68285269	    -10.29580104	     43.78038534	     43.78038534	      6.01506589	     -7.05625118	    -17.94414923	     22.01958422	     -3.10802134	     -2.37659320	     24.96130130	     24.96130130	     11.15633223	    -12.91751612	      4.28176025	     -6.64989912	      4.84424073	      4.50278240	     19.87454330	    -14.67224475	     -4.83074596	     82.00016489	     45.08782835	      0.00000000	      0.00000000	      2.89893962	     -9.53139344	      3.07658963	     40.26721992	     44.86425922	      0.00000000	      0.00000000
     41.87900000	     -5.24854553	     -3.16850252	      0.41273872	      0.97251642	      0.92653146	      0.42981764	     11.41840508	     -5.11261580	     -9.31268175	     47.58122887	     47.58122887	      4.12057845	     -9.05814182	    -17.47265698	     21.46804092	     -3.02678235	     -2.79654174	     25.05095184	     25.05095184	     11.63562608	    -12.79201665	      3.98814667	     -6.74894837	      4.85352372	      4.69098933	     18.42940793	    -14.51916004	     -4.69487974	     79.27339097	     45.16751213	      0.00000000	      0.00000000	      3.86755894	     -9.68463637	      3.08997458	     41.62248304	     44.88901424	      0.00000000	      0.00000000
     41.89064286	     -5.18191972	     -3.28498967	      0.07830913	      0.97206568	      0.92646537	      0.42860903	     13.47761573	     -5.11549160	     -8.26324760	     51.33208681	     51.33208681	      2.83310241	    -10.78657125	    -14.67392084	     20.96256835	     -3.22082301	     -3.22386128	     25.21473840	     25.21473840	     12.12998726	    -12.48445502	      3.55526632	     -6.74102341	      4.97963293	      3.42228545	     19.24911644	    -13.21546542	     -3.87318714	     71.78924272	     45.38746726	      0.00000000	      0.00000000	      2.93571842	    -10.79761976	      3.63908504	     45.92189277	     44.93323030	      0.00000000	      0.00000000
     41.90228571	     -5.08208467	     -3.08233654	     -0.25038218	      0.97155557	      0.92638391	      0.42718315	     15.48275766	     -5.57359730	     -7.47157393	     54.81134660	     54.81134660	      1.11217278	    -12.29009005	    -13.86713833	     20.34451442	     -3.00678493	     -3.59782169	     25.23649571	     25.23649571	     12.52930625	    -12.42807294	      3.36717323	     -6.97061074	      4.86269668	      3.63931200	     17.48113278	    -13.21924760	     -3.56974176	     70.01420014	     45.42781579	      0.00000000	      0.00000000	      4.21657291	    -10.92798600	      3.44629949	     46.84494004	     44.98158574	      0.00000000	      0.00000000
     41.91392857	     -5.06360188	     -3.02837406	     -0.62430713	      0.97101981	      0.92631404	      0.42607987	     17.55907600	     -5.64002290	     -6.53032509	     57.98729847	     57.98729847	     -0.29190799	    -13.88170180	    -12.34018887	     19.80264880	     -2.97770437	     -3.98976025	     25.22306864	     25.22306864	     12.95930537	    -12.34936140	      3.16423426	     -7.01998587	      4.88749114	      4.14878570	     15.83094522	    -13.47139708	     -3.40614951	     67.14508428	     45.51027840	      0.00000000	      0.00000000	      5.40242470	    -10.95623523	      3.33109913	     48.08094365	     45.02700255	      0.00000000	      0.00000000
     41.92557143	     -4.83946044	     -3.15791305	     -0.90058661	      0.97060988	      0.92668217	      0.42512622	     19.38176102	     -5.49329275	     -5.86652409	     61.00691444	     61.00691444	      0.08770759	    -14.04732663	     -6.78131048	     19.06898777	     -3.17035134	     -4.38157110	     25.28296962	     25.28296962	     13.46932950	    -11.97045859	      2.82878777	     -7.19140710	      5.07970869	      3.51057188	     16.25692531	    -12.52140813	     -3.27506150	     59.74023191	     45.74697829	      0.00000000	      0.00000000	      5.79745454	    -11.66130065	      3.64397966	     50.29696622	     45.08294905	      0.00000000	      0.00000000
     41.93721429	     -4.74828970	     -3.07321639	     -1.20717825	      0.97013742	      0.92699001	      0.42411960	     21.29982343	     -5.60453534	     -5.28005509	     63.61729546	     63.61729546	      0.27722490	    -14.21799529	     -2.95389931	     18.33783933	     -3.05607875	     -4.67008322	     25.05558422	     25.05558422	     13.82039186	    -11.93761520	      2.76316540	     -7.30400319	      5.05137668	      3.07189702	     15.58811962	    -12.21927752	     -2.34779295	     55.36081985	     45.82996935	      0.00000000	      0.00000000	      6.33375838	    -12.02126808	      2.87603629	     52.12741170	     45.27507152	      0.00000000	      0.00000000
     41.94885714	     -4.62594770	     -3.02007098	     -1.52640278	      0.96975730	      0.92750150	      0.42325066	     22.95426454	     -5.59364211	     -4.74845685	     65.50905718	     65.50905718	     -0.38148550	    -14.99621548	     -2.55231923	     17.51007281	     -2.98031715	     -5.00717371	     24.72752898	     24.72752898	     14.16621898	    -11.82740120	      2.69710375	     -7.50249598	      5.08361594	      3.42601386	     13.67786988	    -12.45772970	     -2.10388106	     53.47606197	     45.87240386	      0.00000000	      0.00000000	      7.63223053	    -12.05860683	      2.60049505	     53.05651154	     45.33172012	      0.00000000	      0.00000000
